<?xml version="1.0" encoding="UTF-8"?>
<svg width="18px" height="18px" viewBox="0 0 18 18" version="1.1" xmlns="http://www.w3.org/2000/svg" xmlns:xlink="http://www.w3.org/1999/xlink">
    <!-- Generator: Sketch 48.2 (47327) - http://www.bohemiancoding.com/sketch -->
    <title>Ef3</title>
    <desc>Created with Sketch.</desc>
    <defs></defs>
    <g id="Body-1440" stroke="none" stroke-width="1" fill="none" fill-rule="evenodd" transform="translate(-97.000000, -90.000000)">
        <g id="Group-5" transform="translate(30.000000, 89.000000)" stroke="#FFFFFF">
            <g id="Ef3" transform="translate(66.000000, 0.000000)">
                <g id="Page-1" transform="translate(2.000000, 2.000000)">
                    <path d="M16,8 C16,12.418 12.418,16 8,16 C3.582,16 0,12.418 0,8 C0,3.582 3.582,0 8,0 C12.418,0 16,3.582 16,8 Z" id="Stroke-1" stroke-width="2"></path>
                    <path d="M12,12 C12,14.209 10.209,16 8,16 C5.791,16 4,14.209 4,12 C4,9.791 5.791,8 8,8 C10.209,8 12,9.791 12,12 Z" id="Stroke-3" stroke-width="2"></path>
                </g>
            </g>
        </g>
    </g>
</svg>