<?xml version="1.0" encoding="UTF-8"?>
<svg width="20px" height="20px" viewBox="0 0 20 20" version="1.1" xmlns="http://www.w3.org/2000/svg" xmlns:xlink="http://www.w3.org/1999/xlink">
    <!-- Generator: Sketch 49.2 (51160) - http://www.bohemiancoding.com/sketch -->
    <title>ef4_white</title>
    <desc>Created with Sketch.</desc>
    <defs></defs>
    <g id="ef4_white" stroke="none" stroke-width="1" fill="none" fill-rule="evenodd">
        <path d="M17.5,17.5 L7,17.5 L7,13 L7,7 L13,7 L17.5,7 L17.5,17.5 Z M3,11.5 L3,3 L11.5,3 L11.5,5.5 L6.75,5.5 C6.06,5.5 5.5,6.06 5.5,6.75 L5.5,11.5 L3,11.5 Z M17.75,5.5 L13,5.5 L13,2.75 C13,2.06 12.44,1.5 11.75,1.5 L2.75,1.5 C2.06,1.5 1.5,2.06 1.5,2.75 L1.5,11.75 C1.5,12.44 2.06,13 2.75,13 L5.5,13 L5.5,17.75 C5.5,18.44 6.06,19 6.75,19 L17.75,19 C18.44,19 19,18.44 19,17.75 L19,6.75 C19,6.06 18.44,5.5 17.75,5.5 Z" id="Fill-1" fill="#000000"></path>
    </g>
</svg>