<?xml version="1.0" encoding="UTF-8"?>
<svg width="20px" height="20px" viewBox="0 0 20 20" version="1.1" xmlns="http://www.w3.org/2000/svg" xmlns:xlink="http://www.w3.org/1999/xlink">
    <!-- Generator: Sketch 49.1 (51147) - http://www.bohemiancoding.com/sketch -->
    <title>ef7_black</title>
    <desc>Created with Sketch.</desc>
    <defs></defs>
    <g id="ef7_black" stroke="none" stroke-width="1" fill="none" fill-rule="evenodd">
        <path d="M7.2675,7.2675 L14.5,14.5 L7.2675,7.2675 C6.815,7.72 6.19,8 5.5,8 C4.12,8 3,6.88 3,5.5 C3,4.12 4.12,3 5.5,3 C6.88,3 8,4.12 8,5.5 C8,6.19 7.72,6.815 7.2675,7.2675 Z" id="Fill-1" stroke="#FFFFFF" stroke-width="1.5" fill="#000000"></path>
        <path d="M17,14.5 C17,15.88 15.88,17 14.5,17 C13.12,17 12,15.88 12,14.5 C12,13.12 13.12,12 14.5,12 C15.88,12 17,13.12 17,14.5" id="Fill-1-Copy" stroke="#FFFFFF" stroke-width="1.5" fill="#000000"></path>
    </g>
</svg>